<svg xmlns="http://www.w3.org/2000/svg" width="3160.108" height="686.8" viewBox="0 -18.332 3160.108 686.8"><g fill="#fff"><path xmlns="http://www.w3.org/2000/svg" d="M592.553 432.445c-.006-12.413-10.107-22.507-22.52-22.507-12.42 0-22.52 10.1-22.52 22.514 0 12.419 10.1 22.526 22.52 22.526s22.52-10.107 22.52-22.533zm-35.641.007c0-7.231 5.884-13.115 13.121-13.115 7.231 0 13.115 5.884 13.121 13.115 0 7.237-5.884 13.127-13.121 13.127-7.231 0-13.121-5.89-13.121-13.127zm-85.7 0c0 12.419 10.1 22.526 22.513 22.526 12.42 0 22.527-10.107 22.527-22.526 0-12.413-10.108-22.514-22.527-22.514-12.413 0-22.514 10.1-22.514 22.514zm35.64 0c0 7.237-5.883 13.127-13.127 13.127-7.231 0-13.115-5.89-13.115-13.127 0-7.231 5.884-13.115 13.115-13.115 7.244 0 13.127 5.884 13.127 13.115zm25.027 15.633c-12.413 0-22.514 10.101-22.514 22.52s10.101 22.52 22.514 22.52c12.413 0 22.52-10.1 22.52-22.52s-10.1-22.52-22.52-22.52zm0 35.642c-7.231 0-13.115-5.884-13.115-13.121s5.884-13.121 13.115-13.121S545 463.368 545 470.605s-5.884 13.122-13.121 13.122zm0-111.937c-12.413 0-22.514 10.1-22.514 22.514s10.101 22.514 22.514 22.514c12.413 0 22.52-10.101 22.52-22.514s-10.1-22.514-22.52-22.514zm0 35.629c-7.231 0-13.115-5.884-13.115-13.115s5.884-13.115 13.115-13.115S545 387.073 545 394.304s-5.884 13.115-13.121 13.115zm-216.072 3.998-1.278-25.422c-.213-4.31-3.904-7.82-8.215-7.82h-23.09c-4.318 0-8.002 3.51-8.222 7.814l-1.278 25.421-25.44 1.279c-4.305.219-7.808 3.91-7.808 8.22V444c0 4.317 3.51 8.002 7.814 8.221l25.434 1.278 1.278 25.434c.213 4.311 3.904 7.82 8.221 7.82h23.09c4.312 0 8.003-3.509 8.216-7.813l1.278-25.44 25.427-1.279c4.312-.213 7.82-3.904 7.82-8.221v-23.084c0-4.311-3.502-7.996-7.813-8.221l-25.434-1.278zm23.848 31.474-25.214 1.266c-4.267.219-7.764 3.728-7.97 7.976l-1.273 25.215h-20.86l-1.265-25.22c-.22-4.256-3.722-7.758-7.977-7.971l-25.208-1.266v-20.86l25.202-1.272c4.261-.213 7.764-3.716 7.983-7.976l1.266-25.203h20.86l1.271 25.19c.207 4.267 3.71 7.776 7.977 7.99l25.208 1.271v20.86zm-23.604-308.415c0-13.691 11.492-24.82 25.616-24.82h51.526c8.076 0 14.65-6.573 14.65-14.65V67.191c0-3.026 2.456-5.483 5.482-5.483s5.483 2.457 5.483 5.483v27.815c0 14.124-11.492 25.616-25.615 25.616h-51.526c-8.077 0-14.65 6.216-14.65 13.854s6.573 13.854 14.65 13.854h143.317c14.124 0 25.616 10.928 25.616 24.356s-11.492 24.35-25.616 24.35h-54.026c-8.077 0-14.65 6.573-14.65 14.656v27.045c0 3.026-2.456 5.483-5.483 5.483s-5.483-2.457-5.483-5.483v-27.045c0-14.123 11.492-25.621 25.616-25.621h54.026c8.077 0 14.65-6.003 14.65-13.385 0-7.381-6.573-13.39-14.65-13.39H341.667c-14.124 0-25.616-11.129-25.616-24.82zm197.926 160.373H434.36l-6.015-35.033a5.48 5.48 0 0 0-5.401-4.556h-25.465a5.48 5.48 0 0 0-5.402 4.556l-6.015 35.033h-73.244c-112.714 0-152.71 76.477-152.71 141.964 0 75.957 58.581 133.241 136.268 133.241 39.344 0 76.308-16.693 101.961-45.93h30.115c25.66 29.237 62.616 45.93 101.955 45.93 77.567 0 136.067-57.284 136.067-133.241.006-65.487-39.934-141.964-152.497-141.964zM402.09 266.226h16.223l4.913 28.623H397.17l4.92-28.623zM530.413 555.14c-36.093 0-69.91-15.76-92.794-43.242a7.47 7.47 0 0 0-5.734-2.688h-36.988a7.459 7.459 0 0 0-5.734 2.688c-22.877 27.483-56.701 43.242-92.8 43.242-69.183 0-121.354-50.868-121.354-118.328 0-93.778 74.234-127.05 137.796-127.05h201.16c101.44 0 137.59 65.63 137.59 127.05.012 67.46-52.072 118.328-121.142 118.328zm99.9-122.69c0 45.336-24.37 81.96-63.595 95.57-38.166 13.24-82.348 3.428-107.444-23.88-6.084-6.623-13.046-12.72-22.106-12.544h-47.654c-2.337 0-4.23-1.892-4.23-4.23s1.893-4.23 4.23-4.23h47.566c12.5-.4 21.348 7.576 28.423 15.277 22.883 24.895 63.362 33.768 98.446 21.606 35.716-12.395 57.91-45.95 57.91-87.58 0-54.29-43.267-93.69-102.87-93.69H307.618c-59.615 0-102.888 39.4-102.888 93.69 0 41.625 22.194 75.185 57.93 87.58 35.07 12.175 75.555 3.29 98.426-21.606a4.23 4.23 0 1 1 6.235 5.72c-17.614 19.175-44.646 29.727-72.385 29.727-11.774 0-23.68-1.898-35.046-5.846-39.238-13.61-63.613-50.235-63.613-95.57 0-59.189 46.826-102.142 111.347-102.142H518.99c64.502 0 111.322 42.96 111.322 102.149zm-243.11 10.947a4.683 4.683 0 0 1-3.253-1.303 4.702 4.702 0 0 1-.138-6.648l12.727-13.284a4.702 4.702 0 1 1 6.786 6.51l-12.727 13.284a4.712 4.712 0 0 1-3.396 1.441zm33.278 0a4.683 4.683 0 0 1-3.252-1.303 4.702 4.702 0 0 1-.138-6.648l12.727-13.284a4.702 4.702 0 1 1 6.786 6.51l-12.727 13.284a4.712 4.712 0 0 1-3.396 1.441z"/><path d="m895.533 184.124 13.06 48.972h-35.188v214.027h-53.688V233.096h-35.188l13.785-48.972h97.219zm85.248 46.07c-3.144 0-4.716 1.693-4.716 5.079V395.61c0 1.935.302 3.325.907 4.172s1.995 1.27 4.171 1.27h19.952c2.177 0 3.567-.424 4.172-1.27s.907-2.237.907-4.172V235.273c0-3.386-1.572-5.079-4.716-5.079H980.78zm78.718 179.565c0 5.079-.605 9.855-1.814 14.329s-3.265 8.403-6.167 11.79-6.771 6.105-11.608 8.161-10.883 3.084-18.138 3.084H960.83c-7.255 0-13.301-1.028-18.138-3.084s-8.706-4.776-11.608-8.162-4.958-7.315-6.167-11.79-1.814-9.25-1.814-14.328V218.223c0-10.399 2.842-18.682 8.525-24.848s14.692-9.25 27.026-9.25h65.296c12.333 0 21.343 3.083 27.025 9.25s8.525 14.45 8.525 24.848V409.76zm74.002-179.565V333.58h26.119c2.176 0 3.567-.423 4.171-1.27s.907-2.236.907-4.171v-92.866c0-3.385-1.571-5.078-4.715-5.078H1133.5zm51.149-46.07c10.4 0 18.198 2.902 23.398 8.706s7.8 13.543 7.8 23.216v125.877c0 5.079-.545 9.734-1.633 13.966s-3.084 7.92-5.986 11.065-6.771 5.622-11.608 7.436-10.883 2.72-18.138 2.72h-44.982v70.013h-52.237V184.124h103.386zm64.933 262.999-9.43-48.972h56.59c4.11 0 6.166-1.814 6.166-5.442v-47.884c0-3.627-.725-5.804-2.176-6.53s-3.99-1.087-7.618-1.087h-27.207c-3.87 0-7.557-.303-11.064-.907s-6.651-1.995-9.432-4.172-4.958-5.2-6.53-9.069-2.358-9.069-2.358-15.598v-89.239c0-10.399 2.842-18.682 8.525-24.848s14.692-9.25 27.025-9.25h72.552l9.069 48.971h-59.492c-4.354 0-6.53 1.935-6.53 5.805v47.883c0 2.66.665 4.474 1.995 5.442s3.325 1.45 5.986 1.45h33.01c8.465 0 14.934 1.996 19.408 5.986s6.71 10.944 6.71 20.859v86.699c0 14.51-2.962 24.789-8.887 30.834s-16.384 9.069-31.378 9.069h-64.934zm179.202-216.929V333.58h26.119c2.176 0 3.567-.423 4.171-1.27s.907-2.236.907-4.171v-92.866c0-3.385-1.571-5.078-4.715-5.078h-26.482zm51.149-46.07c10.4 0 18.198 2.902 23.398 8.706s7.8 13.543 7.8 23.216v125.877c0 5.079-.545 9.734-1.633 13.966s-3.084 7.92-5.986 11.065-6.771 5.622-11.608 7.436-10.883 2.72-18.138 2.72h-44.982v70.013h-52.237V184.124h103.386zm109.553 46.07c-3.145 0-4.716 1.693-4.716 5.079V395.61c0 1.935.302 3.325.907 4.172s1.995 1.27 4.171 1.27h19.952c2.176 0 3.567-.424 4.172-1.27s.906-2.237.906-4.172V235.273c0-3.386-1.571-5.079-4.715-5.079h-20.677zm78.718 179.565c0 5.079-.605 9.855-1.814 14.329s-3.265 8.403-6.167 11.79-6.772 6.105-11.608 8.161-10.883 3.084-18.138 3.084h-60.943c-7.255 0-13.301-1.028-18.138-3.084s-8.706-4.776-11.608-8.162-4.958-7.315-6.167-11.79-1.814-9.25-1.814-14.328V218.223c0-10.399 2.842-18.682 8.525-24.848s14.692-9.25 27.025-9.25h65.297c12.333 0 21.342 3.083 27.025 9.25s8.525 14.45 8.525 24.848V409.76zm125.514-225.635 13.059 48.972h-35.188v214.027h-53.688V233.096h-35.187l13.785-48.972h97.219zm2.176 238.694c0-7.739 2.781-14.389 8.343-19.951s12.213-8.344 19.952-8.344 14.39 2.781 19.952 8.344 8.343 12.212 8.343 19.951-2.781 14.33-8.343 19.77-12.213 8.162-19.952 8.162-14.389-2.72-19.952-8.162-8.343-12.031-8.343-19.77zm83.071 24.305-9.43-48.972h56.59c4.11 0 6.166-1.814 6.166-5.442v-47.884c0-3.627-.725-5.804-2.176-6.53s-3.99-1.087-7.618-1.087h-27.207c-3.87 0-7.558-.303-11.064-.907s-6.651-1.995-9.432-4.172-4.958-5.2-6.53-9.069-2.358-9.069-2.358-15.598v-89.239c0-10.399 2.842-18.682 8.525-24.848s14.692-9.25 27.025-9.25h72.552l9.069 48.971h-59.493c-4.353 0-6.53 1.935-6.53 5.805v47.883c0 2.66.666 4.474 1.996 5.442s3.325 1.45 5.985 1.45h33.011c8.465 0 14.934 1.996 19.408 5.986s6.71 10.944 6.71 20.859v86.699c0 14.51-2.962 24.789-8.887 30.834s-16.384 9.069-31.378 9.069h-64.934zm184.644-216.929c-3.144 0-4.716 1.693-4.716 5.079V395.61c0 1.935.302 3.325.907 4.172s1.995 1.27 4.171 1.27h19.952c2.176 0 3.567-.424 4.172-1.27s.907-2.237.907-4.172V235.273c0-3.386-1.572-5.079-4.716-5.079h-20.677zm78.718 179.565c0 5.079-.605 9.855-1.814 14.329s-3.265 8.403-6.167 11.79-6.771 6.105-11.608 8.161-10.883 3.084-18.138 3.084h-60.943c-7.255 0-13.301-1.028-18.138-3.084s-8.706-4.776-11.608-8.162-4.958-7.315-6.167-11.79-1.814-9.25-1.814-14.328V218.223c0-10.399 2.842-18.682 8.525-24.848s14.692-9.25 27.025-9.25h65.297c12.333 0 21.342 3.083 27.025 9.25s8.525 14.45 8.525 24.848V409.76zm21.765-225.635h54.05v214.027h52.963l-9.069 48.972h-97.944V184.124zm164.329 262.999c-15.236 0-25.877-3.144-31.923-9.432s-9.069-16.687-9.069-31.197v-222.37h53.688V395.25c0 1.934.303 3.385.907 4.353s1.996 1.45 4.172 1.45h18.5c2.177 0 3.568-.483 4.172-1.45s.907-2.419.907-4.353V184.124h53.688v222.37c0 14.51-3.023 24.909-9.069 31.197s-16.686 9.432-31.922 9.432h-54.051zm220.556-262.999 13.06 48.972h-35.188v214.027h-53.688V233.096h-35.187l13.784-48.972h97.22zm27.57 0h52.6v262.999h-52.6V184.124zm132.043 46.07c-3.144 0-4.716 1.693-4.716 5.079V395.61c0 1.935.302 3.325.907 4.172s1.995 1.27 4.172 1.27h19.951c2.177 0 3.567-.424 4.172-1.27s.907-2.237.907-4.172V235.273c0-3.386-1.572-5.079-4.716-5.079h-20.677zm78.718 179.565c0 5.079-.604 9.855-1.814 14.329s-3.264 8.403-6.166 11.79-6.772 6.105-11.609 8.161-10.882 3.084-18.137 3.084h-60.944c-7.255 0-13.3-1.028-18.137-3.084s-8.707-4.776-11.609-8.162-4.957-7.315-6.167-11.79-1.813-9.25-1.813-14.328V218.223c0-10.399 2.841-18.682 8.524-24.848s14.692-9.25 27.026-9.25h65.296c12.334 0 21.343 3.083 27.025 9.25s8.525 14.45 8.525 24.848V409.76zm21.766-225.635h50.06l26.844 105.562V184.124h54.05v262.999h-54.05l-28.295-109.915v109.915h-48.61V184.124zm165.78 262.999-9.431-48.972h56.59c4.11 0 6.166-1.814 6.166-5.442v-47.884c0-3.627-.725-5.804-2.176-6.53s-3.99-1.087-7.618-1.087h-27.207c-3.87 0-7.557-.303-11.064-.907s-6.651-1.995-9.432-4.172-4.958-5.2-6.53-9.069-2.358-9.069-2.358-15.598v-89.239c0-10.399 2.842-18.682 8.525-24.848s14.692-9.25 27.025-9.25h72.552l9.069 48.971h-59.492c-4.354 0-6.53 1.935-6.53 5.805v47.883c0 2.66.665 4.474 1.995 5.442s3.325 1.45 5.986 1.45h33.01c8.465 0 14.934 1.996 19.408 5.986s6.71 10.944 6.71 20.859v86.699c0 14.51-2.962 24.789-8.887 30.834s-16.384 9.069-31.378 9.069h-64.934zM1157.768 528.357c3.998 0 7.714.341 11.148 1.024s6.586 1.559 9.456 2.627v9.976a37.713 37.713 0 0 0-8.432-3.414c-1.662-.456-3.443-.822-5.344-1.099s-3.899-.415-5.997-.415c-2.613 0-4.889.188-6.828.564s-3.603.88-4.988 1.514-2.524 1.37-3.414 2.212-1.593 1.736-2.108 2.686-.87 1.92-1.069 2.91-.297 1.95-.297 2.88c0 .811.084 1.692.253 2.642s.485 1.9.95 2.85 1.113 1.86 1.944 2.732 1.915 1.642 3.251 2.315 2.944 1.213 4.825 1.618 4.117.61 6.71.61c1.306 0 2.444-.04 3.413-.12s1.856-.188 2.657-.326 1.554-.307 2.257-.505 1.43-.406 2.182-.623v-4.929h-12.35v-8.936h23.364v20.841c-1.464.495-3.102.945-4.913 1.351s-3.681.752-5.611 1.04-3.865.51-5.805.667-3.77.238-5.492.238c-2.672 0-5.235-.178-7.69-.534s-4.744-.906-6.872-1.648-4.068-1.688-5.82-2.835-3.245-2.514-4.482-4.098-2.197-3.4-2.88-5.448-1.024-4.35-1.024-6.902c0-2.534.356-4.83 1.068-6.888s1.707-3.88 2.984-5.463 2.81-2.949 4.602-4.097 3.76-2.093 5.908-2.835 4.444-1.292 6.888-1.648 4.963-.535 7.556-.535zm111.56 34.113h-22.742l-3.83 7.72h-12.291l21.346-40.794h12.292l21.346 40.793h-12.291zm-18.793-7.957h14.903l-7.422-15.022zm138.813 15.676v-28.65l-15.142 28.65h-10.57l-15.14-28.65v28.65h-11.015v-40.793h14.963l16.478 30.876 16.477-30.876h14.904v40.793h-10.956zm69.074 0v-40.793h11.015v40.793h-11.015zm107.67 0-27.522-28.026v28.026h-11.015v-40.793h11.965l27.55 28.145v-28.145h10.956v40.793h-11.935zm96.328-41.832c3.999 0 7.715.341 11.149 1.024s6.586 1.559 9.456 2.627v9.976a37.713 37.713 0 0 0-8.432-3.414c-1.663-.456-3.444-.822-5.344-1.099s-3.9-.415-5.997-.415c-2.613 0-4.89.188-6.829.564s-3.602.88-4.988 1.514-2.523 1.37-3.414 2.212-1.593 1.736-2.108 2.686-.87 1.92-1.068 2.91-.297 1.95-.297 2.88c0 .811.084 1.692.252 2.642s.485 1.9.95 2.85 1.114 1.86 1.945 2.732 1.915 1.642 3.25 2.315 2.945 1.213 4.825 1.618 4.117.61 6.71.61c1.306 0 2.444-.04 3.414-.12s1.855-.188 2.657-.326 1.554-.307 2.256-.505 1.43-.406 2.182-.623v-4.929h-12.35v-8.936h23.365v20.841c-1.465.495-3.103.945-4.914 1.351s-3.68.752-5.61 1.04-3.865.51-5.805.667-3.77.238-5.492.238c-2.672 0-5.236-.178-7.69-.534s-4.745-.906-6.873-1.648-4.067-1.688-5.819-2.835-3.246-2.514-4.483-4.098-2.197-3.4-2.88-5.448-1.024-4.35-1.024-6.902c0-2.534.356-4.83 1.069-6.888s1.707-3.88 2.984-5.463 2.81-2.949 4.601-4.097 3.761-2.093 5.909-2.835 4.443-1.292 6.887-1.648 4.963-.535 7.556-.535zm158.012 9.737v7.096h26.512v8.699h-26.512v16.299h-11.015v-40.793h38.98v8.699h-27.966zm135.518 11.729c0 3.503-.643 6.595-1.93 9.277s-3.127 4.924-5.522 6.725-5.3 3.162-8.714 4.082-7.249 1.38-11.504 1.38-8.1-.46-11.534-1.38-6.359-2.28-8.773-4.082-4.276-4.043-5.582-6.725-1.96-5.774-1.96-9.277.654-6.596 1.96-9.278 3.167-4.924 5.582-6.725 5.339-3.162 8.773-4.082 7.278-1.38 11.534-1.38 8.09.46 11.504 1.38 6.319 2.28 8.714 4.082 4.236 4.043 5.522 6.725 1.93 5.774 1.93 9.278zm-11.133 0c0-1.525-.243-3.044-.728-4.558s-1.345-2.875-2.582-4.082-2.925-2.187-5.062-2.94-4.86-1.127-8.165-1.127c-2.216 0-4.166.173-5.848.52s-3.137.826-4.364 1.44-2.257 1.33-3.088 2.152-1.494 1.702-1.99 2.642-.845 1.92-1.053 2.94-.312 2.023-.312 3.013c0 1.009.104 2.028.312 3.058s.559 2.014 1.054 2.954 1.158 1.816 1.989 2.627 1.86 1.52 3.088 2.123 2.681 1.079 4.364 1.425 3.631.52 5.848.52c3.306 0 6.027-.376 8.165-1.129s3.824-1.731 5.062-2.939 2.098-2.568 2.582-4.082.728-3.033.728-4.557zm77.535 20.366h-11.015v-40.793h27.611c2.969 0 5.488.307 7.556.92s3.75 1.485 5.047 2.613 2.237 2.49 2.82 4.083.877 3.37.877 5.329c0 1.722-.243 3.226-.728 4.513s-1.138 2.39-1.96 3.31-1.776 1.697-2.864 2.33-2.237 1.158-3.444 1.574l13.36 16.121h-12.885l-12.35-15.023h-12.025v15.023zm21.762-27.908c0-.791-.104-1.464-.312-2.018s-.569-1.005-1.083-1.351-1.203-.599-2.064-.757-1.934-.238-3.22-.238h-15.083v8.729h15.082c1.287 0 2.36-.08 3.221-.238s1.55-.41 2.064-.757.876-.796 1.083-1.35.312-1.228.312-2.02zm183.482 16.656c0 1.583-.208 2.959-.623 4.127s-.995 2.172-1.737 3.013-1.633 1.524-2.672 2.049-2.187.94-3.444 1.246-2.598.52-4.023.639-2.9.178-4.423.178h-29.6v-40.793h29.065c1.168 0 2.34.05 3.518.149s2.301.282 3.37.549 2.063.638 2.984 1.113 1.722 1.099 2.404 1.87 1.218 1.703 1.604 2.791.579 2.376.579 3.86c0 2.652-.654 4.755-1.96 6.309s-3.364 2.588-6.175 3.102c1.979.139 3.676.44 5.091.906s2.568 1.098 3.46 1.9 1.543 1.781 1.959 2.94.623 2.508.623 4.052zm-13.744-17.457c0-.515-.08-1.005-.238-1.47s-.445-.876-.86-1.232-.98-.643-1.693-.86-1.623-.327-2.731-.327h-16.24v7.66h16.24c1.108 0 2.018-.1 2.731-.298s1.277-.465 1.692-.801.703-.738.861-1.203.238-.955.238-1.47zm2.553 16.18c0-.93-.158-1.677-.475-2.241s-.811-1-1.484-1.307-1.544-.51-2.613-.608-2.345-.149-3.83-.149h-15.913v8.64h15.913c1.485 0 2.761-.05 3.83-.149s1.94-.306 2.613-.623 1.168-.757 1.484-1.321.475-1.311.475-2.242zM2294 570.19h-11.015v-40.794h27.61c2.97 0 5.488.307 7.557.92s3.75 1.485 5.047 2.613 2.237 2.49 2.82 4.083.876 3.37.876 5.329c0 1.722-.242 3.226-.727 4.513s-1.138 2.39-1.96 3.31-1.776 1.697-2.864 2.33-2.237 1.158-3.444 1.574l13.36 16.121h-12.885l-12.351-15.023H2294v15.023zm21.762-27.909c0-.791-.104-1.464-.312-2.018s-.569-1.005-1.083-1.351-1.203-.599-2.064-.757-1.935-.238-3.221-.238H2294v8.729h15.082c1.286 0 2.36-.08 3.221-.238s1.549-.41 2.064-.757.875-.796 1.083-1.35.312-1.228.312-2.02zm101.524 20.189h-22.742l-3.83 7.72h-12.29l21.346-40.794h12.29l21.347 40.793h-12.291zm-18.793-7.957h14.903l-7.422-15.022zm125.482 15.676-27.522-28.026v28.026h-11.014v-40.793h11.964l27.552 28.145v-28.145h10.955v40.793h-11.935zm120.021-20.426c0 2.613-.287 4.933-.86 6.962s-1.381 3.795-2.42 5.3-2.287 2.78-3.741 3.83-3.073 1.89-4.855 2.523-3.701 1.093-5.76 1.38-4.205.431-6.442.431h-25.888v-40.793h25.83c2.236 0 4.383.144 6.441.43s3.984.748 5.775 1.381 3.42 1.47 4.884 2.509 2.716 2.316 3.755 3.83 1.846 3.28 2.42 5.3.861 4.325.861 6.917zm-11.103 0c0-1.96-.252-3.662-.757-5.107s-1.316-2.637-2.434-3.577-2.578-1.643-4.38-2.108-3.997-.698-6.59-.698h-13.687v23.039h13.687c2.593 0 4.79-.233 6.59-.698s3.262-1.178 4.38-2.138 1.93-2.162 2.434-3.607.757-3.147.757-5.106zm104.078-8.877c-.772-.376-1.791-.802-3.058-1.277s-2.702-.925-4.305-1.35-3.345-.782-5.226-1.07-3.81-.43-5.789-.43c-1.583 0-2.934.05-4.053.149s-2.058.227-2.82.385-1.366.342-1.811.55-.787.42-1.024.638-.391.435-.46.653-.104.416-.104.594c0 .594.297 1.113.89 1.559s1.406.84 2.435 1.187 2.226.673 3.592.98 2.816.623 4.35.95 3.117.683 4.75 1.069 3.216.836 4.75 1.35 2.984 1.114 4.35 1.797 2.563 1.48 3.592 2.39 1.84 1.96 2.434 3.147.891 2.543.891 4.067c0 1.96-.346 3.642-1.04 5.048s-1.617 2.592-2.775 3.562-2.499 1.747-4.023 2.33-3.122 1.035-4.794 1.352-3.365.524-5.077.623-3.34.149-4.884.149c-4.037 0-7.773-.332-11.207-.995s-6.467-1.49-9.1-2.479v-9.738c2.711 1.504 5.804 2.682 9.278 3.533s7.19 1.277 11.148 1.277c2.336 0 4.24-.124 5.715-.371s2.628-.564 3.459-.95 1.395-.807 1.692-1.262.446-.89.446-1.306c0-.654-.297-1.223-.891-1.708s-1.405-.91-2.435-1.276-2.226-.703-3.592-1.01-2.815-.613-4.35-.92-3.112-.638-4.735-.994-3.201-.777-4.735-1.262-2.984-1.05-4.35-1.692-2.563-1.406-3.592-2.287-1.84-1.9-2.434-3.058-.891-2.498-.891-4.022c0-1.801.317-3.355.95-4.662s1.49-2.42 2.568-3.34 2.326-1.667 3.741-2.24 2.905-1.02 4.468-1.337 3.147-.534 4.75-.653 3.127-.178 4.572-.178c1.584 0 3.212.079 4.884.237s3.32.381 4.943.668 3.192.619 4.706.995 2.915.772 4.201 1.188v9.44z"/></g></svg>